<mxfile host="app.diagrams.net" agent="Mozilla/5.0 (Windows NT 10.0; Win64; x64) AppleWebKit/537.36 (KHTML, like Gecko) Chrome/134.0.0.0 Safari/537.36" version="26.1.1">
  <diagram id="C5RBs43oDa-KdzZeNtuy" name="Page-1">
    <mxGraphModel dx="1290" dy="522" grid="0" gridSize="10" guides="1" tooltips="1" connect="1" arrows="1" fold="1" page="1" pageScale="1" pageWidth="1169" pageHeight="827" math="0" shadow="0">
      <root>
        <mxCell id="WIyWlLk6GJQsqaUBKTNV-0" />
        <mxCell id="WIyWlLk6GJQsqaUBKTNV-1" parent="WIyWlLk6GJQsqaUBKTNV-0" />
        <mxCell id="-wOX8Fh6m5rcmZlkLiU2-0" value="BLEU, ROUGE, F1" style="rounded=1;whiteSpace=wrap;html=1;fontSize=12;glass=0;strokeWidth=1;shadow=0;" vertex="1" parent="WIyWlLk6GJQsqaUBKTNV-1">
          <mxGeometry x="390" y="410" width="120" height="40" as="geometry" />
        </mxCell>
        <mxCell id="-wOX8Fh6m5rcmZlkLiU2-1" value="Legal Consistency Score" style="rounded=1;whiteSpace=wrap;html=1;fontSize=12;glass=0;strokeWidth=1;shadow=0;" vertex="1" parent="WIyWlLk6GJQsqaUBKTNV-1">
          <mxGeometry x="645.77" y="470" width="120" height="40" as="geometry" />
        </mxCell>
        <mxCell id="-wOX8Fh6m5rcmZlkLiU2-30" value="" style="group" vertex="1" connectable="0" parent="WIyWlLk6GJQsqaUBKTNV-1">
          <mxGeometry x="56" y="80" width="850" height="181.81499999999997" as="geometry" />
        </mxCell>
        <mxCell id="WIyWlLk6GJQsqaUBKTNV-3" value="Question / Dataset" style="rounded=1;whiteSpace=wrap;html=1;fontSize=12;glass=0;strokeWidth=1;shadow=0;" parent="-wOX8Fh6m5rcmZlkLiU2-30" vertex="1">
          <mxGeometry y="80" width="120" height="40" as="geometry" />
        </mxCell>
        <mxCell id="WIyWlLk6GJQsqaUBKTNV-11" value="Legal LLM" style="rounded=1;whiteSpace=wrap;html=1;fontSize=12;glass=0;strokeWidth=1;shadow=0;" parent="-wOX8Fh6m5rcmZlkLiU2-30" vertex="1">
          <mxGeometry x="364" y="80" width="120" height="40" as="geometry" />
        </mxCell>
        <mxCell id="-wOX8Fh6m5rcmZlkLiU2-2" value="Crew AI Setup" style="rounded=1;whiteSpace=wrap;html=1;fontSize=12;glass=0;strokeWidth=1;shadow=0;" vertex="1" parent="-wOX8Fh6m5rcmZlkLiU2-30">
          <mxGeometry x="730" y="80" width="120" height="40" as="geometry" />
        </mxCell>
        <mxCell id="-wOX8Fh6m5rcmZlkLiU2-7" value="" style="group" vertex="1" connectable="0" parent="-wOX8Fh6m5rcmZlkLiU2-30">
          <mxGeometry x="150.00499999999994" y="40.00499999999991" width="178.41999999999996" height="141.81000000000006" as="geometry" />
        </mxCell>
        <mxCell id="-wOX8Fh6m5rcmZlkLiU2-4" value="" style="rounded=0;whiteSpace=wrap;html=1;rotation=-90;" vertex="1" parent="-wOX8Fh6m5rcmZlkLiU2-7">
          <mxGeometry x="18.305000000000064" y="-18.30499999999992" width="141.81" height="178.42" as="geometry" />
        </mxCell>
        <mxCell id="WIyWlLk6GJQsqaUBKTNV-7" value="Tree Of Thoughts Template" style="rounded=1;whiteSpace=wrap;html=1;fontSize=12;glass=0;strokeWidth=1;shadow=0;" parent="-wOX8Fh6m5rcmZlkLiU2-7" vertex="1">
          <mxGeometry x="32.72500000000002" y="19.46500000000009" width="120" height="40" as="geometry" />
        </mxCell>
        <mxCell id="WIyWlLk6GJQsqaUBKTNV-12" value="RAG Pipeline" style="rounded=1;whiteSpace=wrap;html=1;fontSize=12;glass=0;strokeWidth=1;shadow=0;" parent="-wOX8Fh6m5rcmZlkLiU2-7" vertex="1">
          <mxGeometry x="32.72500000000002" y="79.46500000000009" width="120" height="40" as="geometry" />
        </mxCell>
        <mxCell id="-wOX8Fh6m5rcmZlkLiU2-19" value="" style="endArrow=classic;html=1;rounded=0;entryX=0;entryY=0.5;entryDx=0;entryDy=0;" edge="1" parent="-wOX8Fh6m5rcmZlkLiU2-7" target="WIyWlLk6GJQsqaUBKTNV-7">
          <mxGeometry width="50" height="50" relative="1" as="geometry">
            <mxPoint x="-31.694999999999936" y="64.46500000000009" as="sourcePoint" />
            <mxPoint x="18.305000000000064" y="14.465000000000089" as="targetPoint" />
          </mxGeometry>
        </mxCell>
        <mxCell id="-wOX8Fh6m5rcmZlkLiU2-24" value="" style="endArrow=classic;html=1;rounded=0;entryX=0;entryY=0.75;entryDx=0;entryDy=0;" edge="1" parent="-wOX8Fh6m5rcmZlkLiU2-7" target="WIyWlLk6GJQsqaUBKTNV-11">
          <mxGeometry width="50" height="50" relative="1" as="geometry">
            <mxPoint x="152.72500000000008" y="109.46500000000009" as="sourcePoint" />
            <mxPoint x="202.72500000000008" y="59.46500000000009" as="targetPoint" />
          </mxGeometry>
        </mxCell>
        <mxCell id="-wOX8Fh6m5rcmZlkLiU2-8" value="" style="group" vertex="1" connectable="0" parent="-wOX8Fh6m5rcmZlkLiU2-30">
          <mxGeometry x="520.0049999999999" y="40.00499999999991" width="178.41999999999996" height="141.81000000000006" as="geometry" />
        </mxCell>
        <mxCell id="-wOX8Fh6m5rcmZlkLiU2-9" value="" style="rounded=0;whiteSpace=wrap;html=1;rotation=-90;" vertex="1" parent="-wOX8Fh6m5rcmZlkLiU2-8">
          <mxGeometry x="18.305000000000064" y="-18.30499999999992" width="141.81" height="178.42" as="geometry" />
        </mxCell>
        <mxCell id="-wOX8Fh6m5rcmZlkLiU2-10" value="BLEU, ROUGE, F1" style="rounded=1;whiteSpace=wrap;html=1;fontSize=12;glass=0;strokeWidth=1;shadow=0;" vertex="1" parent="-wOX8Fh6m5rcmZlkLiU2-8">
          <mxGeometry x="32.72500000000002" y="19.46500000000009" width="120" height="40" as="geometry" />
        </mxCell>
        <mxCell id="-wOX8Fh6m5rcmZlkLiU2-11" value="Legal Consistency" style="rounded=1;whiteSpace=wrap;html=1;fontSize=12;glass=0;strokeWidth=1;shadow=0;" vertex="1" parent="-wOX8Fh6m5rcmZlkLiU2-8">
          <mxGeometry x="32.72500000000002" y="79.46500000000009" width="120" height="40" as="geometry" />
        </mxCell>
        <mxCell id="-wOX8Fh6m5rcmZlkLiU2-26" value="" style="endArrow=classic;html=1;rounded=0;entryX=0;entryY=0.5;entryDx=0;entryDy=0;" edge="1" parent="-wOX8Fh6m5rcmZlkLiU2-8">
          <mxGeometry width="50" height="50" relative="1" as="geometry">
            <mxPoint x="-40.00499999999988" y="59.99500000000009" as="sourcePoint" />
            <mxPoint x="32.725000000000136" y="34.46500000000012" as="targetPoint" />
          </mxGeometry>
        </mxCell>
        <mxCell id="-wOX8Fh6m5rcmZlkLiU2-12" value="Prompting Pipeline" style="text;html=1;align=center;verticalAlign=middle;resizable=0;points=[];autosize=1;strokeColor=none;fillColor=none;" vertex="1" parent="-wOX8Fh6m5rcmZlkLiU2-30">
          <mxGeometry x="179.21" width="120" height="30" as="geometry" />
        </mxCell>
        <mxCell id="-wOX8Fh6m5rcmZlkLiU2-13" value="Evaluation Pipeline" style="text;html=1;align=center;verticalAlign=middle;resizable=0;points=[];autosize=1;strokeColor=none;fillColor=none;" vertex="1" parent="-wOX8Fh6m5rcmZlkLiU2-30">
          <mxGeometry x="544.21" width="130" height="30" as="geometry" />
        </mxCell>
        <mxCell id="-wOX8Fh6m5rcmZlkLiU2-20" value="" style="endArrow=classic;html=1;rounded=0;entryX=0;entryY=0.5;entryDx=0;entryDy=0;exitX=1;exitY=0.75;exitDx=0;exitDy=0;" edge="1" parent="-wOX8Fh6m5rcmZlkLiU2-30" source="WIyWlLk6GJQsqaUBKTNV-3" target="WIyWlLk6GJQsqaUBKTNV-12">
          <mxGeometry width="50" height="50" relative="1" as="geometry">
            <mxPoint x="120" y="100" as="sourcePoint" />
            <mxPoint x="170" y="50" as="targetPoint" />
          </mxGeometry>
        </mxCell>
        <mxCell id="-wOX8Fh6m5rcmZlkLiU2-23" value="" style="endArrow=classic;html=1;rounded=0;entryX=0;entryY=0.5;entryDx=0;entryDy=0;" edge="1" parent="-wOX8Fh6m5rcmZlkLiU2-30" target="WIyWlLk6GJQsqaUBKTNV-11">
          <mxGeometry width="50" height="50" relative="1" as="geometry">
            <mxPoint x="299.21000000000004" y="80" as="sourcePoint" />
            <mxPoint x="349.21000000000004" y="30" as="targetPoint" />
          </mxGeometry>
        </mxCell>
        <mxCell id="-wOX8Fh6m5rcmZlkLiU2-27" value="" style="endArrow=classic;html=1;rounded=0;entryX=0;entryY=0.5;entryDx=0;entryDy=0;exitX=1;exitY=0.75;exitDx=0;exitDy=0;" edge="1" parent="-wOX8Fh6m5rcmZlkLiU2-30" source="WIyWlLk6GJQsqaUBKTNV-11" target="-wOX8Fh6m5rcmZlkLiU2-11">
          <mxGeometry width="50" height="50" relative="1" as="geometry">
            <mxPoint x="488.30999999999995" y="109.47" as="sourcePoint" />
            <mxPoint x="538.31" y="59.47" as="targetPoint" />
          </mxGeometry>
        </mxCell>
        <mxCell id="-wOX8Fh6m5rcmZlkLiU2-28" value="" style="endArrow=classic;html=1;rounded=0;entryX=0;entryY=0.5;entryDx=0;entryDy=0;" edge="1" parent="-wOX8Fh6m5rcmZlkLiU2-30" target="-wOX8Fh6m5rcmZlkLiU2-2">
          <mxGeometry width="50" height="50" relative="1" as="geometry">
            <mxPoint x="674.21" y="80" as="sourcePoint" />
            <mxPoint x="724.21" y="30" as="targetPoint" />
          </mxGeometry>
        </mxCell>
        <mxCell id="-wOX8Fh6m5rcmZlkLiU2-29" value="" style="endArrow=classic;html=1;rounded=0;entryX=0;entryY=0.75;entryDx=0;entryDy=0;" edge="1" parent="-wOX8Fh6m5rcmZlkLiU2-30" target="-wOX8Fh6m5rcmZlkLiU2-2">
          <mxGeometry width="50" height="50" relative="1" as="geometry">
            <mxPoint x="674.21" y="140" as="sourcePoint" />
            <mxPoint x="724.21" y="90" as="targetPoint" />
          </mxGeometry>
        </mxCell>
      </root>
    </mxGraphModel>
  </diagram>
</mxfile>
